<?xml version="1.0" encoding="utf-8"?>
<!-- Svg Vector Icons : http://www.onlinewebfonts.com/icon -->
<!DOCTYPE svg PUBLIC "-//W3C//DTD SVG 1.1//EN" "http://www.w3.org/Graphics/SVG/1.1/DTD/svg11.dtd">
<svg version="1.1" xmlns="http://www.w3.org/2000/svg" xmlns:xlink="http://www.w3.org/1999/xlink" x="0px" y="0px" viewBox="0 0 256 256" enable-background="new 0 0 256 256" xml:space="preserve">
<metadata> Svg Vector Icons : http://www.onlinewebfonts.com/icon </metadata>
<g><g><path fill="#000000" d="M246,237.5H10.1l0-2.7c-0.1-6,0.1-15,0.3-22.8c0.1-5,0.2-9.6,0.2-12.5c3.5-10.8,12.7-14,21.7-17.1c2.4-0.8,4.8-1.7,7.1-2.6l14.3-6.1c7.4-3.2,14.9-6.4,21.9-9.2l10.3-2.8c2-1.6,5.5-9.1,7.4-13.1l1.3-2.9l3.1-0.7c-0.5-1.1-1.3-1.9-2-2.7c-1.2-1.3-2.5-2.7-3.3-5l-1.7-17.4c-1.5-0.3-3.3-0.8-3.9-1.3c-6.4-4-7.3-16.6-7.9-24.9l-0.2-3.1c-0.2-2,0.7-3.7,1.5-5.2c0.9-1.7,1.7-3.1,1.2-5.4c-7.9-37.4,6.5-50.5,20-54.8c6.6-2.7,16.9-6.8,28.6-6.8c8.2,0,15.7,2.1,22.4,6.2l5,4.6l6,0.6c5.4,2.9,7.9,10.2,8.2,11.1c2,8.3,2.3,9.2,2.1,17.5c0,1-0.2,3.3-0.5,5.9c-0.5,5.1-1.2,12.8-0.9,15.5c0.2,2,0.5,2.5,1.2,3.7c0.4,0.6,0.8,1.3,1.3,2.3c2.2,4.6,2.5,10.9,0.9,19.3c-0.3,2-1.4,7.2-3.7,10.4c-1.2,1.7-3,2.6-4.4,3.3c-1.4,0.7-2.2,1.2-2.7,2c-1,1.9-1.2,4.6-1.3,7.3c-0.1,2.4-0.3,4.9-1,7.3c-0.9,2.7-2.3,4.4-3.5,5.8c-1,1.1-1.9,2.1-2.3,3.6l5,0.7l1.4,3c1.9,4,5.3,11.6,8.3,13.6l9.1,2.3c7.5,3,15.1,6.3,22.7,9.6l13.7,5.9c2.3,1,4.7,1.8,7.1,2.6c8.9,3.1,18.1,6.3,21.5,16.2c0.1,3.8,0.3,8.4,0.4,13.4c0.2,7.8,0.4,16.8,0.3,22.8L246,237.5L246,237.5z M15.5,232.1h225.1c0-5.7-0.2-13.2-0.3-19.8c-0.1-5.1-0.2-9.7-0.2-12.6c-2.4-6.5-9.7-9-18-11.8c-2.5-0.9-5-1.7-7.4-2.8l-13.8-5.9c-7.5-3.2-15.1-6.5-22.3-9.4l-9.6-2.6c-4.7-3-7.8-9.4-11-16.2l-0.1-0.3l-7.3-1l0.1-2.5c0.2-5,2.4-7.4,4-9.4c1-1.2,1.9-2.3,2.5-3.9c0.5-1.7,0.6-3.7,0.7-5.9c0.2-3.3,0.3-6.6,2-9.6c1.3-2.4,3.3-3.4,5-4.3c1-0.5,2-1,2.4-1.7c1.1-1.5,2.2-4.8,2.8-8.2c1.4-7.3,1.2-12.5-0.4-15.9c-0.4-0.8-0.7-1.3-1-1.9c-0.9-1.5-1.7-2.8-2-5.9c-0.3-3,0.2-9.3,0.9-16.6c0.2-2.5,0.4-4.6,0.4-5.6c0.2-7.5,0-8.1-1.7-15.3c-0.9-2.6-2.9-6.8-4.9-8l-6.5-1l-5.9-4.9c-5.4-3.3-12-5.1-19.1-5.1c-10.6,0-20.3,3.9-26.7,6.5C86.6,35.8,81,52.6,86.6,79.1c0.9,4.2-0.7,7.2-1.8,9.1c-0.4,0.8-0.9,1.6-0.9,2l0.2,3.2c0.4,5.9,1.3,18.1,5.3,20.6c0.4,0.1,2.8,0.7,3.4,0.8l-0.1,2.6l2.9-0.1l1.8,18.9c0.3,0.6,1,1.4,2,2.4c1.5,1.7,3.5,3.8,4.2,8l0.4,2.5l-6.1,1.9c-3.1,6.7-6.3,13.1-10,15.7l-10.8,3.1c-6.7,2.8-14.1,6-21.5,9.1L41.4,185c-2.4,1-4.9,1.9-7.4,2.8c-8.4,2.9-15.6,5.4-18.1,12.8c0.1,2.1,0,6.6-0.1,11.7C15.6,218.9,15.5,226.4,15.5,232.1L15.5,232.1z"/></g></g>
</svg>